<?xml version="1.0" encoding="UTF-8"?>
<svg width="123px" height="119px" viewBox="0 0 123 119" version="1.1" xmlns="http://www.w3.org/2000/svg" xmlns:xlink="http://www.w3.org/1999/xlink">
    <title>Communication</title>
    <g id="Page-1" stroke="none" stroke-width="1" fill="none" fill-rule="evenodd">
        <g id="Talent" transform="translate(-1060.000000, -1880.000000)">
            <g id="Communication" transform="translate(1060.000000, 1880.000000)">
                <g id="Group-11" transform="translate(8.000000, 21.000000)" fill="#40B499" fill-rule="nonzero" stroke="#40B499" stroke-width="1.5">
                    <path d="M15.4202841,44.0969957 C15.4646607,44.0525322 15.521031,44.0296996 15.5893951,44.0296996 L34.2947501,44.0296996 C34.1472278,43.2918455 34.0680694,42.5311588 34.0260915,41.7608584 L15.5893951,41.7608584 C14.9189479,41.7608584 14.2904787,42.0204292 13.8191268,42.4915021 L2.663798,53.6578541 C2.63741189,53.6854936 2.55465544,53.7696137 2.41193056,53.7107296 C2.31238296,53.6698712 2.26320884,53.5941631 2.26320884,53.4836052 L2.26320884,17.0775966 C2.26320884,8.91193133 8.89331931,2.2688412 17.04303,2.2688412 L40.0853025,2.2688412 C47.5537717,2.2688412 53.7293214,7.85321888 54.7116044,15.0707296 L57,15.0707296 C56.0057233,6.59862661 48.8059127,0 40.0865018,0 L17.0442294,0 C7.6459758,0 0,7.66094421 0,17.0775966 L0,53.4848069 C0,54.3860944 0.488143083,55.1792275 1.2437454,55.6262661 C1.34689111,55.6875536 1.4392425,55.7644635 1.55318254,55.8113305 C1.86142031,55.9387124 2.1840505,56 2.50308259,56 C3.15553919,56 3.79360337,55.7428326 4.27095213,55.2597425 L9.65611783,49.8688412 L15.4202841,44.0969957 Z" id="Path"></path>
                    <path d="M85.734194,21.088927 C85.1622796,21.0300429 84.5819899,21 83.9945214,21 L61.0054786,21 C51.6287154,21 44,28.6621459 44,38.08 L44,47.9460944 C44,51.1787124 44.9153023,54.1938197 46.4755038,56.7739056 C49.4595088,61.7105579 54.8472292,65.0260944 61.0054786,65.0260944 L83.4178212,65.0260944 L85.4446474,65.0260944 C85.5080605,65.0260944 85.5702771,65.0525322 85.6145466,65.0969957 L89.3571159,68.8559657 L96.7321788,76.2633476 C97.2119647,76.7452361 97.8472922,77 98.4969773,77 C98.8200252,77 99.145466,76.936309 99.4565491,76.8077253 C100.394584,76.4183691 101,75.5074678 101,74.488412 L101,38.0787983 C101,29.2509871 94.2973552,21.9661803 85.734194,21.088927 Z M98.7410579,74.4872103 C98.7410579,74.5941631 98.690806,74.6698712 98.5926952,74.7107296 C98.4945844,74.751588 98.4060453,74.7347639 98.3306675,74.6590558 L87.2130353,63.4927039 C86.7404282,63.0180258 86.1134761,62.7572532 85.4458438,62.7572532 L61.0054786,62.7572532 C52.8742443,62.7572532 46.2589421,56.1129614 46.2589421,47.9472961 L46.2589421,38.0812017 C46.2589421,29.9143348 52.8742443,23.2700429 61.0054786,23.2700429 L83.9945214,23.2700429 C92.1257557,23.2700429 98.7410579,29.9143348 98.7410579,38.0812017 L98.7410579,74.4872103 Z" id="Shape"></path>
                </g>
                <rect id="Rectangle-Copy-3" x="0" y="0" width="123" height="119"></rect>
            </g>
        </g>
    </g>
</svg>