<?xml version="1.0" encoding="UTF-8"?>
<svg width="312px" height="91px" viewBox="0 0 312 91" version="1.1" xmlns="http://www.w3.org/2000/svg" xmlns:xlink="http://www.w3.org/1999/xlink">
    <!-- Generator: Sketch 62 (91390) - https://sketch.com -->
    <title>Group 11</title>
    <desc>Created with Sketch.</desc>
    <g id="Page-1" stroke="none" stroke-width="1" fill="none" fill-rule="evenodd">
        <g id="Group-11" transform="translate(1.000000, 1.000000)">
            <g id="linkedIn" transform="translate(67.000000, 0.000000)">
                <path d="M0,21 C0,32.59725 9.4014375,42 21,42 C32.5985625,42 42,32.59725 42,21 C42,9.4014375 32.5985625,0 21,0 C9.4014375,0 0,9.4014375 0,21 Z" id="Fill-209" stroke="#35B498"></path>
                <g id="Group-4" transform="translate(12.115385, 12.115385)" fill="#35B498">
                    <path d="M17.6129032,17.5963911 L13.9637298,17.5963911 L13.9637298,11.8854073 C13.9637298,10.5237097 13.9395121,8.77232661 12.0670403,8.77232661 C10.1681492,8.77232661 9.8786371,10.2562137 9.8786371,11.7885363 L9.8786371,17.5963911 L6.23276613,17.5963911 L6.23276613,5.8529879 L9.73112903,5.8529879 L9.73112903,7.45906452 L9.78176613,7.45906452 C10.2683226,6.5354879 11.4593952,5.56127419 13.234996,5.56127419 C16.9304032,5.56127419 17.6129032,7.99295565 17.6129032,11.1555726 L17.6129032,17.5963911 Z" id="Path"></path>
                    <path d="M2.11795161,4.2491129 C0.945592742,4.2491129 0,3.30021774 0,2.1322621 C0,0.964306452 0.945592742,0.0154112903 2.11795161,0.0154112903 C3.28480645,0.0154112903 4.23260081,0.964306452 4.23260081,2.1322621 C4.23260081,3.30021774 3.28480645,4.2491129 2.11795161,4.2491129 L2.11795161,4.2491129 Z" id="Path"></path>
                    <polygon id="Path" points="3.94308871 17.5963911 0.289512097 17.5963911 0.289512097 5.8529879 3.94308871 5.8529879"></polygon>
                </g>
            </g>
            <g id="youtube" transform="translate(134.000000, 0.000000)">
                <g id="Group-22-Copy-2" stroke="#35B498">
                    <path d="M0,21 C0,32.59725 9.4014375,42 21,42 C32.5985625,42 42,32.59725 42,21 C42,9.4014375 32.5985625,0 21,0 C9.4014375,0 0,9.4014375 0,21 Z" id="Fill-209"></path>
                </g>
                <g id="Group-28" transform="translate(10.500000, 13.730769)" fill="#35B498">
                    <path d="M17.2754637,0.204797 L17.4454197,0.221972057 C17.8881181,0.265043032 18.6358065,0.356024415 19.3115323,1.06064619 C19.9212097,1.67503719 20.1193548,3.06942665 20.1193548,3.06942665 C20.1193548,3.06942665 20.3225806,4.70527429 20.3225806,6.34238612 L20.3225806,7.87709944 C20.3225806,9.51421126 20.1193548,11.1513231 20.1193548,11.1513231 L20.1117234,11.1999411 C20.0702419,11.4512925 19.8534677,12.612714 19.3115323,13.1588394 C18.5392742,13.9641214 17.6730242,13.9679139 17.2754637,14.0146886 C14.7309295,14.197928 11.0444922,14.2222766 10.2965944,14.2253722 L10.1163867,14.2253762 C9.60074931,14.2203028 4.78953793,14.1694309 3.2516129,14.0235378 C2.79943548,13.9388378 1.78330645,13.9641214 1.01104839,13.1588394 C0.401370968,12.5444484 0.203225806,11.1513231 0.203225806,11.1513231 C0.203225806,11.1513231 -1.11910481e-13,9.51421126 -1.11910481e-13,7.87709944 L-1.11910481e-13,6.34238612 C-1.11910481e-13,4.70527429 0.203225806,3.06942665 0.203225806,3.06942665 C0.203225806,3.06942665 0.401370968,1.67503719 1.01104839,1.06064619 C1.78330645,0.255364161 2.64955645,0.251571624 3.04711694,0.204797 C5.5916511,0.021557579 9.27503792,0.00226921884 10.0222935,0.000238865141 L10.3002872,0.000238865141 C11.0475427,0.00226921884 14.7309295,0.021557579 17.2754637,0.204797 Z M8.12903226,4.74193548 L8.13028558,10.1612903 L13.5483871,7.46125588 L8.12903226,4.74193548 Z" id="Combined-Shape"></path>
                </g>
            </g>
            <g id="twitter" transform="translate(201.000000, 0.000000)">
                <path d="M21,0 C9.4014375,0 0,9.4014375 0,21 C0,32.59725 9.4014375,42 21,42 C32.5985625,42 42,32.59725 42,21 C42,9.4014375 32.5985625,0 21,0 L21,0 Z" id="Fill-209" stroke="#35B498"></path>
                <path d="M31.5,14.8653245 C30.7573017,15.1947115 29.9584435,15.4174579 29.1204627,15.5177885 C29.9761118,15.0047776 30.6329928,14.1932993 30.9421875,13.2259615 C30.1420673,13.7004808 29.2548678,14.045012 28.3115084,14.2311599 C27.5555589,13.4259916 26.4790565,12.9230769 25.2877103,12.9230769 C22.9996695,12.9230769 21.1451322,14.7776142 21.1451322,17.065655 C21.1451322,17.389994 21.1817308,17.7061298 21.2524038,18.0096454 C17.8089844,17.8367488 14.7567909,16.1872897 12.7135817,13.6809195 C12.3570613,14.2929988 12.1526142,15.0047776 12.1526142,15.7638822 C12.1526142,17.2006911 12.8839543,18.4690204 13.9951623,19.2117187 C13.3161959,19.1902644 12.6776142,19.0041166 12.1191707,18.6936599 C12.1185397,18.7113281 12.1185397,18.7283654 12.1185397,18.7460337 C12.1185397,20.7532752 13.5465144,22.4273437 15.4420673,22.8078425 C15.094381,22.902494 14.7283954,22.9529748 14.3504207,22.9529748 C14.0835036,22.9529748 13.8241587,22.9271034 13.5711238,22.8791466 C14.0980168,24.5248197 15.6282151,25.722476 17.4411058,25.7559195 C16.0232272,26.8671274 14.2368389,27.5290565 12.2958534,27.5290565 C11.9614183,27.5290565 11.6320312,27.5094952 11.3076923,27.4716346 C13.1407752,28.6465745 15.3183894,29.332482 17.6581731,29.332482 C25.2782452,29.332482 29.4448017,23.0198618 29.4448017,17.5458534 C29.4448017,17.3660156 29.4410156,17.1874399 29.4328125,17.0094952 C30.2423978,16.4258113 30.9447115,15.6963642 31.5,14.8653245" id="Fill-1" fill="#35B498"></path>
            </g>
            <g id="instagram" transform="translate(268.000000, 0.000000)">
                <path d="M0,21 C0,32.59725 9.4014375,42 21,42 C32.5985625,42 42,32.59725 42,21 C42,9.4014375 32.5985625,0 21,0 C9.4014375,0 0,9.4014375 0,21 Z" id="Fill-209" stroke="#35B498"></path>
                <path d="M26.964497,27.4615385 L15.035503,27.4615385 C14.7611361,27.4615385 14.5384615,27.2353846 14.5384615,26.9567308 L14.5384615,19.3846154 L16.5266272,19.3846154 C16.2676686,19.7632212 16.1801893,20.4694471 16.1801893,20.9177163 C16.1801893,23.6209615 18.3507692,25.8204087 21.0183905,25.8204087 C23.6865089,25.8204087 25.8570888,23.6209615 25.8570888,20.9177163 C25.8570888,20.4694471 25.7944615,19.7738221 25.4733728,19.3846154 L27.4615385,19.3846154 L27.4615385,26.9567308 C27.4615385,27.2353846 27.2388639,27.4615385 26.964497,27.4615385 M20.9997375,17.7692308 C22.7843129,17.7692308 24.2307692,19.2158281 24.2307692,20.9997369 C24.2307692,22.7841719 22.7843129,24.2307692 20.9997375,24.2307692 C19.2156871,24.2307692 17.7692308,22.7841719 17.7692308,20.9997369 C17.7692308,19.2158281 19.2156871,17.7692308 20.9997375,17.7692308 M24.7153846,15.3461538 L26.1692308,15.3461538 C26.4367385,15.3461538 26.6538462,15.5632615 26.6538462,15.8307692 L26.6538462,17.2846154 C26.6538462,17.5521231 26.4367385,17.7692308 26.1692308,17.7692308 L24.7153846,17.7692308 C24.4478769,17.7692308 24.2307692,17.5521231 24.2307692,17.2846154 L24.2307692,15.8307692 C24.2307692,15.5632615 24.4478769,15.3461538 24.7153846,15.3461538 M27.1566346,12.9230769 L14.8433654,12.9230769 C13.7827644,12.9230769 12.9230769,13.7807452 12.9230769,14.8388221 L12.9230769,27.1611779 C12.9230769,28.2192548 13.7827644,29.0769231 14.8433654,29.0769231 L27.1566346,29.0769231 C28.2172356,29.0769231 29.0769231,28.2192548 29.0769231,27.1611779 L29.0769231,14.8388221 C29.0769231,13.7807452 28.2172356,12.9230769 27.1566346,12.9230769" id="Fill-23" fill="#35B498"></path>
            </g>
            <g id="facebook">
                <path d="M21,0 C9.4014375,0 0,9.4014375 0,21 C0,32.59725 9.4014375,42 21,42 C32.5985625,42 42,32.59725 42,21 C42,9.4014375 32.5985625,0 21,0 L21,0 Z" id="Fill-209" stroke="#35B498"></path>
                <path d="M25.2846067,12.119036 L23.0088543,12.1153846 C20.4521245,12.1153846 18.7998534,13.81056 18.7998534,16.4342935 L18.7998534,18.4255997 L16.5116861,18.4255997 C16.3139613,18.4255997 16.1538462,18.5858974 16.1538462,18.7836222 L16.1538462,21.668798 C16.1538462,21.8665228 16.3141438,22.0266379 16.5116861,22.0266379 L18.7998534,22.0266379 L18.7998534,29.3068548 C18.7998534,29.5045797 18.9599685,29.6646948 19.1576933,29.6646948 L22.1431008,29.6646948 C22.3408256,29.6646948 22.5009407,29.5043971 22.5009407,29.3068548 L22.5009407,22.0266379 L25.1763419,22.0266379 C25.3740667,22.0266379 25.5341818,21.8665228 25.5341818,21.668798 L25.5352773,18.7836222 C25.5352773,18.6886851 25.497485,18.5977646 25.4304813,18.5305783 C25.3634776,18.463392 25.2721919,18.4255997 25.1772548,18.4255997 L22.5009407,18.4255997 L22.5009407,16.7375446 C22.5009407,15.9261973 22.6942838,15.5143163 23.7511896,15.5143163 L25.2842416,15.5137686 C25.4817838,15.5137686 25.641899,15.3534709 25.641899,15.1559286 L25.641899,12.476876 C25.641899,12.2795163 25.4819664,12.1194012 25.2846067,12.119036 Z" id="Path" fill="#35B498" fill-rule="nonzero"></path>
            </g>
            <g id="linkedIn" transform="translate(67.000000, 47.000000)">
                <path d="M0,21 C0,32.59725 9.4014375,42 21,42 C32.5985625,42 42,32.59725 42,21 C42,9.4014375 32.5985625,0 21,0 C9.4014375,0 0,9.4014375 0,21 Z" id="Fill-209" fill="#35B498"></path>
                <g id="Group-4" transform="translate(12.115385, 12.115385)" fill="#FFFFFF">
                    <path d="M17.6129032,17.5963911 L13.9637298,17.5963911 L13.9637298,11.8854073 C13.9637298,10.5237097 13.9395121,8.77232661 12.0670403,8.77232661 C10.1681492,8.77232661 9.8786371,10.2562137 9.8786371,11.7885363 L9.8786371,17.5963911 L6.23276613,17.5963911 L6.23276613,5.8529879 L9.73112903,5.8529879 L9.73112903,7.45906452 L9.78176613,7.45906452 C10.2683226,6.5354879 11.4593952,5.56127419 13.234996,5.56127419 C16.9304032,5.56127419 17.6129032,7.99295565 17.6129032,11.1555726 L17.6129032,17.5963911 Z" id="Path"></path>
                    <path d="M2.11795161,4.2491129 C0.945592742,4.2491129 0,3.30021774 0,2.1322621 C0,0.964306452 0.945592742,0.0154112903 2.11795161,0.0154112903 C3.28480645,0.0154112903 4.23260081,0.964306452 4.23260081,2.1322621 C4.23260081,3.30021774 3.28480645,4.2491129 2.11795161,4.2491129 L2.11795161,4.2491129 Z" id="Path"></path>
                    <polygon id="Path" points="3.94308871 17.5963911 0.289512097 17.5963911 0.289512097 5.8529879 3.94308871 5.8529879"></polygon>
                </g>
            </g>
            <g id="youtube" transform="translate(134.000000, 47.000000)">
                <g id="Group-22-Copy-2" fill="#35B498">
                    <path d="M0,21 C0,32.59725 9.4014375,42 21,42 C32.5985625,42 42,32.59725 42,21 C42,9.4014375 32.5985625,0 21,0 C9.4014375,0 0,9.4014375 0,21 Z" id="Fill-209"></path>
                </g>
                <g id="Group-28" transform="translate(10.500000, 13.730769)" fill="#FFFFFF">
                    <path d="M17.2754637,0.204797 L17.4454197,0.221972057 C17.8881181,0.265043032 18.6358065,0.356024415 19.3115323,1.06064619 C19.9212097,1.67503719 20.1193548,3.06942665 20.1193548,3.06942665 C20.1193548,3.06942665 20.3225806,4.70527429 20.3225806,6.34238612 L20.3225806,7.87709944 C20.3225806,9.51421126 20.1193548,11.1513231 20.1193548,11.1513231 L20.1117234,11.1999411 C20.0702419,11.4512925 19.8534677,12.612714 19.3115323,13.1588394 C18.5392742,13.9641214 17.6730242,13.9679139 17.2754637,14.0146886 C14.7309295,14.197928 11.0444922,14.2222766 10.2965944,14.2253722 L10.1163867,14.2253762 C9.60074931,14.2203028 4.78953793,14.1694309 3.2516129,14.0235378 C2.79943548,13.9388378 1.78330645,13.9641214 1.01104839,13.1588394 C0.401370968,12.5444484 0.203225806,11.1513231 0.203225806,11.1513231 C0.203225806,11.1513231 -1.11910481e-13,9.51421126 -1.11910481e-13,7.87709944 L-1.11910481e-13,6.34238612 C-1.11910481e-13,4.70527429 0.203225806,3.06942665 0.203225806,3.06942665 C0.203225806,3.06942665 0.401370968,1.67503719 1.01104839,1.06064619 C1.78330645,0.255364161 2.64955645,0.251571624 3.04711694,0.204797 C5.5916511,0.021557579 9.27503792,0.00226921884 10.0222935,0.000238865141 L10.3002872,0.000238865141 C11.0475427,0.00226921884 14.7309295,0.021557579 17.2754637,0.204797 Z M8.12903226,4.74193548 L8.13028558,10.1612903 L13.5483871,7.46125588 L8.12903226,4.74193548 Z" id="Combined-Shape"></path>
                </g>
            </g>
            <g id="twitter" transform="translate(201.000000, 47.000000)">
                <path d="M21,0 C9.4014375,0 0,9.4014375 0,21 C0,32.59725 9.4014375,42 21,42 C32.5985625,42 42,32.59725 42,21 C42,9.4014375 32.5985625,0 21,0 L21,0 Z" id="Fill-209" stroke="#35B498" fill="#35B498"></path>
                <path d="M31.5,14.8653245 C30.7573017,15.1947115 29.9584435,15.4174579 29.1204627,15.5177885 C29.9761118,15.0047776 30.6329928,14.1932993 30.9421875,13.2259615 C30.1420673,13.7004808 29.2548678,14.045012 28.3115084,14.2311599 C27.5555589,13.4259916 26.4790565,12.9230769 25.2877103,12.9230769 C22.9996695,12.9230769 21.1451322,14.7776142 21.1451322,17.065655 C21.1451322,17.389994 21.1817308,17.7061298 21.2524038,18.0096454 C17.8089844,17.8367488 14.7567909,16.1872897 12.7135817,13.6809195 C12.3570613,14.2929988 12.1526142,15.0047776 12.1526142,15.7638822 C12.1526142,17.2006911 12.8839543,18.4690204 13.9951623,19.2117187 C13.3161959,19.1902644 12.6776142,19.0041166 12.1191707,18.6936599 C12.1185397,18.7113281 12.1185397,18.7283654 12.1185397,18.7460337 C12.1185397,20.7532752 13.5465144,22.4273437 15.4420673,22.8078425 C15.094381,22.902494 14.7283954,22.9529748 14.3504207,22.9529748 C14.0835036,22.9529748 13.8241587,22.9271034 13.5711238,22.8791466 C14.0980168,24.5248197 15.6282151,25.722476 17.4411058,25.7559195 C16.0232272,26.8671274 14.2368389,27.5290565 12.2958534,27.5290565 C11.9614183,27.5290565 11.6320312,27.5094952 11.3076923,27.4716346 C13.1407752,28.6465745 15.3183894,29.332482 17.6581731,29.332482 C25.2782452,29.332482 29.4448017,23.0198618 29.4448017,17.5458534 C29.4448017,17.3660156 29.4410156,17.1874399 29.4328125,17.0094952 C30.2423978,16.4258113 30.9447115,15.6963642 31.5,14.8653245" id="Fill-1" fill="#FFFFFF"></path>
            </g>
            <g id="instagram" transform="translate(268.000000, 47.000000)">
                <path d="M0,21 C0,32.59725 9.4014375,42 21,42 C32.5985625,42 42,32.59725 42,21 C42,9.4014375 32.5985625,0 21,0 C9.4014375,0 0,9.4014375 0,21 Z" id="Fill-209" fill="#35B498"></path>
                <path d="M26.964497,27.4615385 L15.035503,27.4615385 C14.7611361,27.4615385 14.5384615,27.2353846 14.5384615,26.9567308 L14.5384615,19.3846154 L16.5266272,19.3846154 C16.2676686,19.7632212 16.1801893,20.4694471 16.1801893,20.9177163 C16.1801893,23.6209615 18.3507692,25.8204087 21.0183905,25.8204087 C23.6865089,25.8204087 25.8570888,23.6209615 25.8570888,20.9177163 C25.8570888,20.4694471 25.7944615,19.7738221 25.4733728,19.3846154 L27.4615385,19.3846154 L27.4615385,26.9567308 C27.4615385,27.2353846 27.2388639,27.4615385 26.964497,27.4615385 M20.9997375,17.7692308 C22.7843129,17.7692308 24.2307692,19.2158281 24.2307692,20.9997369 C24.2307692,22.7841719 22.7843129,24.2307692 20.9997375,24.2307692 C19.2156871,24.2307692 17.7692308,22.7841719 17.7692308,20.9997369 C17.7692308,19.2158281 19.2156871,17.7692308 20.9997375,17.7692308 M24.7153846,15.3461538 L26.1692308,15.3461538 C26.4367385,15.3461538 26.6538462,15.5632615 26.6538462,15.8307692 L26.6538462,17.2846154 C26.6538462,17.5521231 26.4367385,17.7692308 26.1692308,17.7692308 L24.7153846,17.7692308 C24.4478769,17.7692308 24.2307692,17.5521231 24.2307692,17.2846154 L24.2307692,15.8307692 C24.2307692,15.5632615 24.4478769,15.3461538 24.7153846,15.3461538 M27.1566346,12.9230769 L14.8433654,12.9230769 C13.7827644,12.9230769 12.9230769,13.7807452 12.9230769,14.8388221 L12.9230769,27.1611779 C12.9230769,28.2192548 13.7827644,29.0769231 14.8433654,29.0769231 L27.1566346,29.0769231 C28.2172356,29.0769231 29.0769231,28.2192548 29.0769231,27.1611779 L29.0769231,14.8388221 C29.0769231,13.7807452 28.2172356,12.9230769 27.1566346,12.9230769" id="Fill-23" fill="#FFFFFF"></path>
            </g>
            <g id="facebook" transform="translate(0.000000, 47.000000)">
                <path d="M21,0 C9.4014375,0 0,9.4014375 0,21 C0,32.59725 9.4014375,42 21,42 C32.5985625,42 42,32.59725 42,21 C42,9.4014375 32.5985625,0 21,0 L21,0 Z" id="Fill-209" fill="#35B498"></path>
                <path d="M25.2846067,12.119036 L23.0088543,12.1153846 C20.4521245,12.1153846 18.7998534,13.81056 18.7998534,16.4342935 L18.7998534,18.4255997 L16.5116861,18.4255997 C16.3139613,18.4255997 16.1538462,18.5858974 16.1538462,18.7836222 L16.1538462,21.668798 C16.1538462,21.8665228 16.3141438,22.0266379 16.5116861,22.0266379 L18.7998534,22.0266379 L18.7998534,29.3068548 C18.7998534,29.5045797 18.9599685,29.6646948 19.1576933,29.6646948 L22.1431008,29.6646948 C22.3408256,29.6646948 22.5009407,29.5043971 22.5009407,29.3068548 L22.5009407,22.0266379 L25.1763419,22.0266379 C25.3740667,22.0266379 25.5341818,21.8665228 25.5341818,21.668798 L25.5352773,18.7836222 C25.5352773,18.6886851 25.497485,18.5977646 25.4304813,18.5305783 C25.3634776,18.463392 25.2721919,18.4255997 25.1772548,18.4255997 L22.5009407,18.4255997 L22.5009407,16.7375446 C22.5009407,15.9261973 22.6942838,15.5143163 23.7511896,15.5143163 L25.2842416,15.5137686 C25.4817838,15.5137686 25.641899,15.3534709 25.641899,15.1559286 L25.641899,12.476876 C25.641899,12.2795163 25.4819664,12.1194012 25.2846067,12.119036 Z" id="Path" fill="#FFFFFF" fill-rule="nonzero"></path>
            </g>
        </g>
    </g>
</svg>