<?xml version="1.0" encoding="UTF-8"?>
<svg width="121px" height="119px" viewBox="0 0 121 119" version="1.1" xmlns="http://www.w3.org/2000/svg" xmlns:xlink="http://www.w3.org/1999/xlink">
    <title>Integrity</title>
    <g id="Page-1" stroke="none" stroke-width="1" fill="none" fill-rule="evenodd">
        <g id="Talent" transform="translate(-465.000000, -1880.000000)">
            <g id="Integrity" transform="translate(465.000000, 1880.000000)">
                <rect id="Rectangle-Copy-2" x="0" y="0" width="121" height="119"></rect>
                <g id="badge" transform="translate(26.000000, 15.000000)" fill="#40B499" fill-rule="nonzero">
                    <path d="M68.8655172,36.2458621 C70.6148276,33.5660345 70.2917241,30.0793103 68.0798276,27.7665517 C67.105,26.7472414 66.6975862,25.3151724 66.9896552,23.9355172 C67.652931,20.8046552 66.092069,17.67 63.1939655,16.3125862 C61.9167241,15.7143103 61.0194828,14.5260345 60.7934483,13.1339655 C60.2808621,9.975 57.692931,7.61586207 54.5003448,7.39689655 C53.0932759,7.30034483 51.8272414,6.51655172 51.1136207,5.3 C49.4943103,2.53982759 46.2298276,1.27482759 43.172931,2.2237931 C41.8260345,2.64206897 40.3625862,2.36827586 39.2575862,1.49189655 C36.7505172,-0.497068966 33.2489655,-0.497068966 30.742069,1.49189655 C29.6372414,2.36862069 28.1734483,2.64206897 26.8267241,2.2237931 C23.7705172,1.27465517 20.5051724,2.53965517 18.8860345,5.3 C18.1724138,6.51655172 16.9065517,7.30034483 15.4994828,7.39689655 C12.3067241,7.61586207 9.71896552,9.97517241 9.2062069,13.1339655 C8.98034483,14.5260345 8.08293103,15.7143103 6.80586207,16.3125862 C3.90793103,17.6701724 2.34706897,20.8048276 3.01,23.9355172 C3.30224138,25.3151724 2.89465517,26.7474138 1.92,27.7667241 C-0.291724138,30.0794828 -0.615,33.5663793 1.13431034,36.2462069 C1.90517241,37.427069 2.04258621,38.9098276 1.50172414,40.2124138 C0.274655172,43.167931 1.23310345,46.5360345 3.83206897,48.402931 C4.97758621,49.2258621 5.6412069,50.5587931 5.60741379,51.9686207 C5.53103448,55.1677586 7.64137931,57.9622414 10.7393103,58.7643103 C11.6537931,59.0010345 12.4482759,59.5301724 13.0175862,60.2518966 L5.89275862,77.4524138 C4.89431034,79.862931 7.15413793,82.3451724 9.64603448,81.5801724 L17.4463793,79.1863793 C17.6743103,79.1168966 17.9201724,79.2187931 18.0317241,79.4289655 L21.8546552,86.6372414 C23.0775862,88.9431034 26.4301724,88.7803448 27.4274138,86.3725862 L34.8534483,68.4448276 C34.9508621,68.4415517 35.0482759,68.4415517 35.1456897,68.4448276 L42.5717241,86.3725862 C43.5708621,88.7841379 46.9232759,88.9398276 48.1446552,86.6374138 L51.9675862,79.4289655 C52.0789655,79.2186207 52.325,79.1167241 52.552931,79.1865517 L60.3531034,81.5803448 C62.8463793,82.3456897 65.1044828,79.8617241 64.1065517,77.4525862 L56.9815517,60.252069 C57.5508621,59.5303448 58.3453448,59.0012069 59.2598276,58.7644828 C62.3577586,57.9625862 64.467931,55.1681034 64.3917241,51.9687931 C64.357931,50.5589655 65.0217241,49.2260345 66.1672414,48.4032759 C68.7663793,46.5362069 69.7244828,43.1681034 68.4974138,40.2125862 C67.9574138,38.9094828 68.0948276,37.4267241 68.8655172,36.2458621 Z M25.0386207,85.3825862 C24.8763793,85.7743103 24.3374138,85.7982759 24.1396552,85.4253448 L20.3167241,78.217069 C19.6251724,76.9131034 18.0991379,76.2813793 16.6882759,76.7141379 L8.88793103,79.107931 C8.48327586,79.2317241 8.12034483,78.8331034 8.28241379,78.4418966 L14.6034483,63.1810345 C16.0296552,65.1346552 18.4137931,66.2234483 20.9236207,65.9303448 C22.3243103,65.767069 23.7127586,66.3046552 24.6377586,67.3691379 C25.9796552,68.9139655 27.8705172,69.7339655 29.7996552,69.7337931 C30.4098276,69.7337931 31.0236207,69.6484483 31.6253448,69.4813793 L25.0386207,85.3825862 Z M61.1122414,79.1077586 L53.312069,76.7139655 C51.9012069,76.2812069 50.3748276,76.9131034 49.6834483,78.2168966 L45.8605172,85.4251724 C45.6631034,85.7977586 45.1234483,85.7736207 44.9613793,85.3824138 L38.3760345,69.4843103 C40.8793103,70.1791379 43.5963793,69.4015517 45.3624138,67.3687931 C46.2872414,66.3041379 47.6751724,65.7662069 49.0765517,65.93 C51.5887931,66.2236207 53.9713793,65.1344828 55.3967241,63.1808621 L61.7181034,78.4412069 C61.8805172,78.8339655 61.5155172,79.2310345 61.1122414,79.1077586 L61.1122414,79.1077586 Z M66.7001724,34.8324138 C65.4618966,36.7294828 65.2412069,39.1112069 66.1098276,41.2036207 C66.8736207,43.0434483 66.2772414,45.14 64.6591379,46.3024138 C62.8191379,47.6241379 61.752931,49.7653448 61.807069,52.03 C61.8546552,54.0217241 60.5408621,55.7613793 58.6122414,56.2605172 C56.8082759,56.7275862 55.2934483,57.9017241 54.385,59.4894828 C54.3825862,59.4941379 54.38,59.4986207 54.3775862,59.5031034 C54.185,59.8415517 54.0181034,60.1977586 53.8837931,60.5710345 C53.2087931,62.4453448 51.3565517,63.5939655 49.3767241,63.3618966 C47.1268966,63.0987931 44.8960345,63.9631034 43.4103448,65.6732759 C42.1039655,67.177069 39.9610345,67.5775862 38.1993103,66.6474138 C37.6001724,66.3308621 36.9656897,66.1112069 36.3177586,65.9841379 C36.3124138,65.982931 36.307069,65.9817241 36.3017241,65.9806897 C35.4410345,65.8139655 34.5565517,65.8141379 33.6958621,65.9813793 C33.6927586,65.982069 33.6898276,65.9827586 33.6867241,65.9832759 C33.0372414,66.1103448 32.4015517,66.3303448 31.8010345,66.6474138 C30.0393103,67.5777586 27.8965517,67.177069 26.5901724,65.6732759 C25.2801724,64.1655172 23.3917241,63.3155172 21.4208621,63.3155172 C21.1563793,63.3155172 20.89,63.3308621 20.6236207,63.362069 C18.6456897,63.5936207 16.7913793,62.4456897 16.1163793,60.5712069 C15.982069,60.1982759 15.8155172,59.8425862 15.6231034,59.5043103 C15.6201724,59.4987931 15.6172414,59.4936207 15.6143103,59.4881034 C14.7056897,57.9010345 13.1913793,56.7274138 11.387931,56.2605172 C9.45931034,55.7612069 8.14568966,54.0217241 8.19327586,52.0301724 C8.24741379,49.7653448 7.1812069,47.6243103 5.3412069,46.3024138 C3.72327586,45.1401724 3.12655172,43.0434483 3.89051724,41.2034483 C4.75913793,39.1110345 4.53844828,36.7293103 3.30017241,34.8322414 C2.21137931,33.1641379 2.41241379,30.9934483 3.78948276,29.5537931 C5.35517241,27.9165517 6.00982759,25.6158621 5.54051724,23.3996552 C5.12775862,21.4506897 6.09948276,19.4993103 7.90344828,18.6541379 C9.955,17.6931034 11.3963793,15.7843103 11.7594828,13.5481034 C12.0786207,11.5815517 13.6896552,10.112931 15.677069,9.97672414 C17.9372414,9.82172414 19.9710345,8.56258621 21.1172414,6.60827586 C22.1253448,4.89 24.1584483,4.10275862 26.0603448,4.69344828 C28.2239655,5.36534483 30.5751724,4.92586207 32.35,3.51775862 C33.9103448,2.27948276 36.0903448,2.27948276 37.6512069,3.51775862 C39.4258621,4.92568966 41.7767241,5.36551724 43.9406897,4.69344828 C45.8432759,4.10258621 47.8760345,4.89017241 48.8837931,6.60827586 C50.03,8.56241379 52.0637931,9.82155172 54.3239655,9.97672414 C56.3113793,10.1131034 57.9224138,11.5817241 58.2415517,13.5481034 C58.6046552,15.7843103 60.0462069,17.6931034 62.0975862,18.6543103 C63.9017241,19.4993103 64.8732759,21.4506897 64.4605172,23.3996552 C63.9912069,25.6158621 64.6456897,27.9165517 66.2115517,29.5537931 C67.587931,30.9934483 67.7889655,33.1641379 66.7001724,34.8324138 Z" id="Shape"></path>
                    <path d="M10.5087931,33.1256897 C11.2168966,33.2127586 11.862931,32.7089655 11.95,32.0003448 C13.377931,20.3943103 23.2874138,11.6424138 35,11.6424138 C46.7182759,11.6424138 56.6281034,20.3989655 58.0513793,32.0112069 C58.1317241,32.6665517 58.6893103,33.147069 59.3331034,33.147069 C59.3856897,33.147069 59.4386207,33.1437931 59.492069,33.1372414 C60.2008621,33.0503448 60.705,32.4053448 60.6182759,31.6965517 C59.0362069,18.7894828 48.0227586,9.05637931 35,9.05637931 C21.9832759,9.05637931 10.9705172,18.7843103 9.38327586,31.6844828 C9.2962069,32.3932759 9.8,33.0384483 10.5087931,33.1256897 L10.5087931,33.1256897 Z" id="Path"></path>
                    <path d="M59.4922414,36.5965517 C58.7855172,36.5103448 58.1384483,37.0139655 58.0515517,37.7227586 C56.6287931,49.3355172 46.7187931,58.0925862 35,58.0925862 C23.2865517,58.0925862 13.377069,49.3398276 11.9496552,37.732931 C11.8625862,37.0243103 11.2177586,36.5206897 10.5084483,36.6074138 C9.79982759,36.6944828 9.29568966,37.3398276 9.38293103,38.0486207 C10.9694828,50.9498276 21.9822414,60.6784483 34.9998276,60.6784483 C48.0232759,60.6784483 59.0367241,50.9448276 60.6181034,38.037069 C60.7051724,37.3284483 60.2010345,36.6834483 59.4922414,36.5965517 L59.4922414,36.5965517 Z" id="Path"></path>
                    <path d="M53.2584483,29.5312069 C52.9298276,28.5198276 52.0308621,27.8415517 50.967931,27.8034483 L40.8298276,27.4398276 L37.3510345,17.9101724 C36.9863793,16.9112069 36.0636207,16.2656897 35.0001724,16.2656897 C33.9367241,16.2656897 33.0139655,16.9112069 32.6493103,17.9101724 L29.1705172,27.4398276 L19.0324138,27.8034483 C17.9696552,27.8415517 17.0705172,28.5198276 16.7418966,29.5312069 C16.4132759,30.5425862 16.7418966,31.6198276 17.5793103,32.2753448 L25.5674138,38.5286207 L22.7805172,48.2831034 C22.4882759,49.3056897 22.8555172,50.3703448 23.7160345,50.9955172 C24.5755172,51.62 25.7015517,51.6413793 26.5844828,51.0468966 L35,45.3818966 L43.4156897,51.0465517 C44.2975862,51.6403448 45.4236207,51.6203448 46.2841379,50.9951724 C47.1446552,50.3701724 47.5117241,49.3055172 47.2194828,48.2827586 L44.4325862,38.5284483 L52.4206897,32.2751724 C53.2582759,31.6196552 53.587069,30.5425862 53.2584483,29.5312069 L53.2584483,29.5312069 Z M42.7946552,36.5267241 C41.9886207,37.1577586 41.6494828,38.2013793 41.9308621,39.1851724 L44.6705172,48.7739655 L36.3977586,43.2055172 C35.9731034,42.9196552 35.4865517,42.7767241 35,42.7767241 C34.5134483,42.7767241 34.0268966,42.9196552 33.6024138,43.2053448 L25.3294828,48.7739655 L28.0691379,39.1851724 C28.3503448,38.2010345 28.0113793,37.1577586 27.2055172,36.5267241 L19.3527586,30.3794828 L29.3191379,30.0218966 C30.3418966,29.9851724 31.2294828,29.3401724 31.5803448,28.3789655 L35.0001724,19.0110345 L38.42,28.3789655 C38.7710345,29.3401724 39.6584483,29.9851724 40.6812069,30.0217241 L50.6472414,30.3793103 L42.7946552,36.5267241 Z" id="Shape"></path>
                </g>
            </g>
        </g>
    </g>
</svg>