<svg xmlns="http://www.w3.org/2000/svg" width="55" height="55" viewBox="0 0 55 55">
    <g fill="#35B498">
        <path d="M9.603 15.08v.972c0 1.632 1.121 2.997 2.62 3.361v1.877h1.745v-1.878c1.498-.364 2.62-1.728 2.62-3.36 0-1.495-.937-2.816-2.332-3.288l-1.768-.6c-.682-.229-1.139-.874-1.139-1.603 0-.932.747-1.69 1.664-1.69h.164c.918 0 1.664.758 1.664 1.69v.084l1.746-.084c0-1.632-1.12-2.997-2.619-3.361V5.323h-1.746V7.2c-1.498.364-2.619 1.728-2.619 3.36 0 1.495.937 2.816 2.331 3.287l1.769.6c.68.23 1.137.876 1.137 1.605.001.931-.745 1.689-1.663 1.689h-.164c-.917 0-1.664-.758-1.664-1.69v-.971H9.603zM7.482 25.332c.61.294 1.241.54 1.88.732l.494-1.702c-.55-.166-1.098-.378-1.625-.633l-.75 1.603z"/>
        <path d="M5.61 24.227l1-1.455c-3.045-2.16-4.864-5.697-4.864-9.466 0-6.358 5.091-11.532 11.35-11.532 5.619 0 10.284 4.176 11.18 9.63L22.35 9.936l-1.047 1.42 4.015 3.06 4.016-3.06-1.047-1.42-2.213 1.686C25.255 5.079 19.753 0 13.095 0 5.875 0 0 5.97 0 13.306c0 4.348 2.098 8.43 5.61 10.921zM37.615 14.637L27.063 25.36l-6.11-6.21L5.75 34.597l3.853 3.915 11.35-11.532 6.11 6.21 14.405-14.637 1.15 1.169c.427.434 1.016.681 1.619.681 1.086 0 2.03-.786 2.243-1.868l1.488-7.559c.032-.161.048-.326.048-.491 0-1.379-1.104-2.501-2.462-2.501-.162 0-.323.017-.483.049l-7.438 1.511c-1.066.217-1.84 1.176-1.84 2.28 0 .621.238 1.204.671 1.644l1.15 1.17zm.36-3.353l7.438-1.512c.434-.087.857.264.857.713 0 .048-.005.095-.014.142l-1.488 7.56c-.078.399-.63.569-.915.28l-2.385-2.423-14.405 14.637-6.11-6.21-11.35 11.533-1.384-1.407 12.733-12.94 6.111 6.21 13.02-13.23-2.384-2.423c-.102-.103-.16-.245-.16-.39 0-.262.184-.49.436-.54zM43.65 41.694v-2.662h2.62c4.332 0 7.857-3.581 7.857-7.984v-.887h-4.365c-3.895 0-7.127 2.898-7.743 6.68-1.438-1.9-3.69-3.131-6.225-3.131h-4.365v.887c0 .912.169 1.809.465 2.661H20.079c-1.444 0-2.619 1.194-2.619 2.661v1.775c0 .42.106.815.279 1.17-.35-.176-.737-.283-1.152-.283H2.62C1.175 42.58 0 43.775 0 45.24v1.775c0 .684.263 1.302.681 1.774C.263 49.262 0 49.88 0 50.565v1.774C0 53.806 1.175 55 2.619 55h13.968c.673 0 1.282-.267 1.746-.692.465.426 1.073.692 1.746.692h13.969c1.444 0 2.619-1.194 2.619-2.661v-1.774c0-.684-.263-1.303-.681-1.775.419-.472.68-1.09.68-1.774v-1.774c0-.684-.262-1.302-.68-1.774.335-.378.563-.85.641-1.375.85.31 1.746.488 2.66.488h2.619V55h4.365c4.332 0 7.857-3.581 7.857-7.984v-.887h-4.365c-2.467 0-4.67 1.164-6.111 2.977V41.694h-.001zm6.112 6.21h2.557c-.425 3.005-2.975 5.322-6.05 5.322h-2.556c.425-3.006 2.975-5.323 6.049-5.323zm0-15.969h2.557c-.425 3.006-2.975 5.323-6.05 5.323h-2.556c.425-3.005 2.975-5.323 6.049-5.323zM19.206 39.92c0-.49.392-.887.873-.887h.873v1.774h1.746v-1.774h1.746v1.774h1.746v-1.774h1.747v1.774h1.746v-1.774h1.746v1.774h1.746v-1.774h.873c.48 0 .873.398.873.887v1.775c0 .49-.392.887-.873.887H20.079c-.48 0-.873-.398-.873-.887v-1.775zm15.715 5.323v1.774c0 .49-.392.887-.873.887H20.079c-.48 0-.873-.397-.873-.887v-1.774c0-.49.392-.887.873-.887h.873v1.774h1.746v-1.774h1.746v1.774h1.746v-1.774h1.747v1.774h1.746v-1.774h1.746v1.774h1.746v-1.774h.873c.48 0 .873.397.873.887zm-33.175 0c0-.49.392-.887.873-.887h.873v1.774h1.746v-1.774h1.746v1.774H8.73v-1.774h1.746v1.774h1.746v-1.774h1.746v1.774h1.746v-1.774h.873c.481 0 .873.397.873.887v1.774c0 .49-.392.887-.873.887H2.62c-.481 0-.873-.397-.873-.887v-1.774zm14.841 7.984H2.62c-.481 0-.873-.398-.873-.887v-1.774c0-.49.392-.888.873-.888h.873v1.775h1.746v-1.775h1.746v1.775H8.73v-1.775h1.746v1.775h1.746v-1.775h1.746v1.775h1.746v-1.775h.873c.481 0 .873.398.873.888v1.774c0 .49-.392.887-.873.887zm18.334-.887c0 .49-.392.887-.873.887H20.079c-.48 0-.873-.398-.873-.887v-1.774c0-.49.392-.888.873-.888h.873v1.775h1.746v-1.775h1.746v1.775h1.746v-1.775h1.747v1.775h1.746v-1.775h1.746v1.775h1.746v-1.775h.873c.48 0 .873.398.873.888v1.774zm4.365-11.533c-.912 0-1.804-.217-2.62-.61v-.277c0-1.467-1.174-2.66-2.618-2.66h-.28c-.263-.562-.443-1.16-.53-1.775h2.556c3.074 0 5.624 2.317 6.049 5.322h-2.557z"/>
    </g>
</svg>
