<?xml version="1.0" encoding="UTF-8"?>
<svg width="121px" height="119px" viewBox="0 0 121 119" version="1.1" xmlns="http://www.w3.org/2000/svg" xmlns:xlink="http://www.w3.org/1999/xlink">
    <title>Legacy</title>
    <g id="Page-1" stroke="none" stroke-width="1" fill="none" fill-rule="evenodd">
        <g id="Talent" transform="translate(-756.000000, -1880.000000)">
            <g id="Legacy" transform="translate(756.000000, 1880.000000)">
                <rect id="Rectangle-Copy-2" x="0" y="0" width="121" height="119"></rect>
                <path d="M76.2173913,23.5217391 L76.2173913,16.5217391 C76.2173913,15.6814348 75.5359565,15 74.6956522,15 C73.8553478,15 73.173913,15.6814348 73.173913,16.5217391 L73.173913,23.5217391 C73.173913,24.3620435 73.8553478,25.0434783 74.6956522,25.0434783 C75.5359565,25.0434783 76.2173913,24.3620435 76.2173913,23.5217391 Z" id="Path" fill="#40B499" fill-rule="nonzero"></path>
                <path d="M89.9130435,53.3478261 L78.5529565,53.3478261 C80.3116304,48.8430217 81.0235,43.5406739 80.8862391,38.8206957 C80.8600652,37.9199783 80.8255217,37.399087 80.7788043,37.0711522 C80.7001304,33.7831304 78.0002609,31.1304348 74.6956522,31.1304348 C71.3393043,31.1304348 68.6086957,33.8610435 68.6086957,37.2173913 L68.6086957,38.7391304 C68.6086957,48.3635217 56.2500435,53.7710217 46.9233043,56.0898478 C46.2181304,54.4777174 44.6084348,53.3478261 42.7391304,53.3478261 L27.5217391,53.3478261 C26.6814348,53.3478261 26,54.0292609 26,54.8695652 L26,91.3913043 C26,92.2316087 26.6814348,92.9130435 27.5217391,92.9130435 L42.7391304,92.9130435 C44.5959565,92.9130435 46.1963696,91.7980652 46.9088478,90.2029783 C47.6811304,90.4011087 48.3980217,90.5882826 49.0598261,90.7611522 C54.3729783,92.1488261 57.2997391,92.9130435 64.4178261,92.9130435 L80.7826087,92.9130435 C84.1389565,92.9130435 86.8695652,90.1824348 86.8695652,86.826087 C86.8695652,85.5746087 86.489587,84.4104783 85.8393478,83.4420435 C88.1901304,82.6198478 89.9130435,80.3737609 89.9130435,77.6956522 C89.9130435,76.4487391 89.5423478,75.2808043 88.894087,74.3079565 C91.2345217,73.4843913 92.9565217,71.2434783 92.9565217,68.5652174 C92.9565217,67.3137391 92.5765435,66.1496087 91.9263043,65.1811739 C94.277087,64.3589783 96,62.1128913 96,59.4347826 C96,56.0784348 93.2693913,53.3478261 89.9130435,53.3478261 Z M44.2608696,88.3478261 C44.2608696,89.186913 43.5782174,89.8695652 42.7391304,89.8695652 L29.0434783,89.8695652 L29.0434783,56.3913043 L42.7391304,56.3913043 C43.5782174,56.3913043 44.2608696,57.0739565 44.2608696,57.9130435 L44.2608696,88.3478261 Z M89.9130435,62.4782609 C86.6490652,62.4782609 85.871,62.4782609 82.3043478,62.4782609 C81.4640435,62.4782609 80.7826087,63.1596957 80.7826087,64 C80.7826087,64.8403043 81.4640435,65.5217391 82.3043478,65.5217391 L86.8695652,65.5217391 C88.5477391,65.5217391 89.9130435,66.8870435 89.9130435,68.5652174 C89.9130435,70.2461304 88.5504783,71.6086957 86.8695652,71.6086957 L79.2608696,71.6086957 C78.4205652,71.6086957 77.7391304,72.2901304 77.7391304,73.1304348 C77.7391304,73.9707391 78.4205652,74.6521739 79.2608696,74.6521739 L83.826087,74.6521739 C85.4843261,74.6521739 86.8695652,75.9768478 86.8695652,77.6956522 C86.8695652,79.3765652 85.507,80.7391304 83.826087,80.7391304 C80.5621087,80.7391304 79.7840435,80.7391304 76.2173913,80.7391304 C75.377087,80.7391304 74.6956522,81.4205652 74.6956522,82.2608696 C74.6956522,83.1011739 75.377087,83.7826087 76.2173913,83.7826087 L80.7826087,83.7826087 C82.4607826,83.7826087 83.826087,85.147913 83.826087,86.826087 C83.826087,88.5042609 82.4607826,89.8695652 80.7826087,89.8695652 L64.4178261,89.8695652 C57.6906739,89.8695652 55.0632391,89.183413 49.828913,87.8164348 C49.0621087,87.6161739 48.2210435,87.396587 47.3043478,87.1628478 L47.3043478,59.1342391 C58.3168696,56.5110652 71.6521739,50.1081957 71.6521739,38.7391304 L71.6521739,37.2173913 C71.6521739,35.5392174 73.0174783,34.173913 74.6956522,34.173913 C76.3707826,34.173913 77.7359348,35.537087 77.7391304,37.2126739 C77.7391304,37.8787391 78.5645217,45.9952391 75.2547391,53.3478261 L75.1304348,53.3478261 C74.2901304,53.3478261 73.6086957,54.0292609 73.6086957,54.8695652 C73.6086957,55.7098696 74.2901304,56.3913043 75.1304348,56.3913043 C76.1930652,56.3913043 88.1785652,56.3913043 89.9130435,56.3913043 C91.5912174,56.3913043 92.9565217,57.7566087 92.9565217,59.4347826 C92.9565217,61.1156957 91.5939565,62.4782609 89.9130435,62.4782609 Z" id="Shape" fill="#40B499" fill-rule="nonzero"></path>
                <path d="M54.9130435,35.6956522 C54.9130435,36.5359565 55.5944783,37.2173913 56.4347826,37.2173913 L62.5217391,37.2173913 C63.3620435,37.2173913 64.0434783,36.5359565 64.0434783,35.6956522 C64.0434783,34.8553478 63.3620435,34.173913 62.5217391,34.173913 L56.4347826,34.173913 C55.5944783,34.173913 54.9130435,34.8553478 54.9130435,35.6956522 Z" id="Path" fill="#40B499" fill-rule="nonzero"></path>
                <path d="M85.3478261,35.6956522 C85.3478261,36.5359565 86.0292609,37.2173913 86.8695652,37.2173913 L92.9565217,37.2173913 C93.7968261,37.2173913 94.4782609,36.5359565 94.4782609,35.6956522 C94.4782609,34.8553478 93.7968261,34.173913 92.9565217,34.173913 L86.8695652,34.173913 C86.0292609,34.173913 85.3478261,34.8553478 85.3478261,35.6956522 Z" id="Path" fill="#40B499" fill-rule="nonzero"></path>
                <path d="M86.5314348,21.7076739 L82.2281087,26.011 C81.6338696,26.6052391 81.6338696,27.5688043 82.2281087,28.1631957 C82.8226522,28.7574348 83.7857609,28.7572826 84.3803043,28.1631957 L88.6836304,23.8598696 C89.2778696,23.2656304 89.2778696,22.3020652 88.6836304,21.7076739 C88.0892391,21.113587 87.1259783,21.113587 86.5314348,21.7076739 Z" id="Path" fill="#40B499" fill-rule="nonzero"></path>
                <path d="M67.1631957,28.1631957 C67.7574348,27.5689565 67.7574348,26.6053913 67.1631957,26.011 L62.8598696,21.7076739 C62.2654783,21.113587 61.3022174,21.113587 60.7076739,21.7076739 C60.1134348,22.301913 60.1134348,23.2654783 60.7076739,23.8598696 L65.011,28.1631957 C65.6056957,28.7574348 66.5688043,28.7572826 67.1631957,28.1631957 Z" id="Path" fill="#40B499" fill-rule="nonzero"></path>
            </g>
        </g>
    </g>
</svg>