<svg xmlns="http://www.w3.org/2000/svg" width="67" height="67" viewBox="0 0 67 67">
    <g fill="none" fill-rule="evenodd">
        <path stroke="#35B498" stroke-width="1.54" d="M0 32.45C0 50.37 14.478 64.9 32.34 64.9c17.862 0 32.34-14.53 32.34-32.45C64.68 14.527 50.202 0 32.34 0 14.478 0 0 14.527 0 32.45z" transform="translate(1.18 1)"/>
        <g fill="#35B498">
            <path d="M27.124 27.19h-5.62v-8.824c0-2.104-.037-4.81-2.92-4.81-2.925 0-3.37 2.292-3.37 4.66v8.975H9.597V9.044h5.388v2.482h.078c.75-1.427 2.583-2.933 5.318-2.933 5.69 0 6.742 3.758 6.742 8.645v9.953zM3.262 6.566C1.456 6.566 0 5.1 0 3.295S1.456.024 3.262.024c1.797 0 3.256 1.466 3.256 3.27 0 1.806-1.46 3.272-3.256 3.272zM6.072 27.191L.446 27.191.446 9.044 6.072 9.044z" transform="translate(1.18 1) translate(18.658 18.721)"/>
        </g>
    </g>
</svg>
