<?xml version="1.0" encoding="UTF-8"?>
<svg width="25px" height="25px" viewBox="0 0 25 25" version="1.1" xmlns="http://www.w3.org/2000/svg" xmlns:xlink="http://www.w3.org/1999/xlink">
    <title>Location_Icon@1.5x</title>
    <g id="Page-1" stroke="none" stroke-width="1" fill="none" fill-rule="evenodd">
        <g id="Offering" transform="translate(-99.000000, -1553.000000)">
            <g id="Group-6" transform="translate(0.000000, 1351.000000)">
                <g id="Map-Footprint" transform="translate(96.000000, 135.000000)">
                    <g id="Group" transform="translate(3.102256, 67.681206)">
                        <g id="Location_Icon" transform="translate(0.497744, 0.718797)">
                            <path d="M21.7513178,9.2656535 C20.9368256,10.0421876 19.6449611,10.5729586 17.9014587,10.8566798 C17.9201161,11.0651281 17.9323399,11.2755064 17.9323399,11.4891015 C17.9323399,15.1864846 15.0513792,18.1832499 11.4981085,18.1832499 C7.94419451,18.1832499 5.06323379,15.1864846 5.06323379,11.4891015 C5.06323379,7.79171848 7.94419451,4.79430981 11.4981085,4.79430981 C11.6924029,4.79430981 11.8841238,4.80717698 12.074558,4.82454767 C12.4522097,3.28949357 13.0691907,1.76988007 14.0818375,0.883974997 C14.2484674,0.725065372 14.4376149,0.577092847 14.6441331,0.438770704 C13.6437102,0.155049472 12.5892451,-5.43662846e-14 11.4981085,-5.43662846e-14 C5.14751379,-5.43662846e-14 2.64484628e-14,5.14365364 2.64484628e-14,11.4891015 C2.64484628e-14,17.8339061 5.14751379,22.9782031 11.4981085,22.9782031 C17.8480599,22.9782031 22.9955737,17.8339061 22.9955737,11.4891015 C22.9955737,10.3915314 22.8385942,9.3312761 22.5510128,8.32634964 C22.3161868,8.68405714 22.051123,9.00316311 21.7513178,9.2656535" id="Fill-12" fill="#0E242F"></path>
                            <path d="M21.3453584,0.480589027 C22.2762986,0.480589027 22.919014,0.529484296 22.919014,0.529484296 C22.919014,0.529484296 22.81672,6.47669308 20.7830628,8.20797162 C19.5014921,9.46380801 16.3908523,9.67032619 14.4865102,9.67032619 C13.55557,9.67032619 12.9128546,9.62078756 12.9128546,9.62078756 C12.9128546,9.62078756 13.0151486,3.67293541 15.0494491,1.94230023 C16.3310199,0.686463844 19.4410163,0.480589027 21.3453584,0.480589027" id="Fill-14" fill="#34B190"></path>
                        </g>
                    </g>
                </g>
            </g>
        </g>
    </g>
</svg>