<?xml version="1.0" encoding="UTF-8"?>
<svg width="101px" height="87px" viewBox="0 0 101 87" version="1.1" xmlns="http://www.w3.org/2000/svg" xmlns:xlink="http://www.w3.org/1999/xlink">
    <title>Quote down</title>
    <g id="Page-1" stroke="none" stroke-width="1" fill="none" fill-rule="evenodd">
        <g id="Quote-down">
            <rect id="Rectangle-Copy" fill="#E7F8F4" x="0" y="0" width="101" height="86"></rect>
            <path d="M72.0644531,86.2695312 C74.3561198,86.2695312 76.3792318,86.1442057 78.1337891,85.8935547 C79.8883464,85.6429036 81.320638,85.1236979 82.4306641,84.3359375 C83.5406901,83.5481771 84.3642578,82.4202474 84.9013672,80.9521484 C85.4384766,79.4840495 85.7070312,77.5325521 85.7070312,75.0976562 L85.7070312,75.0976562 L85.7070312,58.4472656 L98.2753906,29.1210938 C98.6334635,28.3333333 98.7945964,27.6529948 98.7587891,27.0800781 C98.7229818,26.5071615 98.4365234,26.023763 97.8994141,25.6298828 C97.3623047,25.2360026 96.5208333,24.9674479 95.375,24.8242188 C94.2291667,24.6809896 92.7252604,24.609375 90.8632812,24.609375 C89.1445312,24.609375 87.7122396,24.6809896 86.5664062,24.8242188 C85.4205729,24.9674479 84.4358724,25.2001953 83.6123047,25.5224609 C82.788737,25.8447266 82.1083984,26.2565104 81.5712891,26.7578125 C81.0341797,27.2591146 80.514974,27.8678385 80.0136719,28.5839844 L80.0136719,28.5839844 L66.3710938,49.1015625 C65.0104167,51.1067708 63.8466797,53.0761719 62.8798828,55.0097656 C61.9130859,56.9433594 61.1432292,58.9485677 60.5703125,61.0253906 C59.9973958,63.1022135 59.585612,65.2864583 59.3349609,67.578125 C59.0843099,69.8697917 58.9589844,72.3763021 58.9589844,75.0976562 C58.9589844,77.5325521 59.1917318,79.4840495 59.6572266,80.9521484 C60.1227214,82.4202474 60.8925781,83.5481771 61.9667969,84.3359375 C63.0410156,85.1236979 64.4016927,85.6429036 66.0488281,85.8935547 C67.6959635,86.1442057 69.7011719,86.2695312 72.0644531,86.2695312 Z M29.8476562,86.2695312 C32.2109375,86.2695312 34.2519531,86.1442057 35.9707031,85.8935547 C37.6894531,85.6429036 39.1038411,85.1236979 40.2138672,84.3359375 C41.3238932,83.5481771 42.1474609,82.4202474 42.6845703,80.9521484 C43.2216797,79.4840495 43.4902344,77.5325521 43.4902344,75.0976562 L43.4902344,75.0976562 L43.4902344,58.4472656 L56.1660156,29.1210938 C56.452474,28.3333333 56.5957031,27.6529948 56.5957031,27.0800781 C56.5957031,26.5071615 56.3092448,26.023763 55.7363281,25.6298828 C55.1634115,25.2360026 54.3040365,24.9674479 53.1582031,24.8242188 C52.0123698,24.6809896 50.5084635,24.609375 48.6464844,24.609375 C46.999349,24.609375 45.6028646,24.6809896 44.4570312,24.8242188 C43.3111979,24.9674479 42.3264974,25.2001953 41.5029297,25.5224609 C40.679362,25.8447266 39.9990234,26.2565104 39.4619141,26.7578125 C38.9248047,27.2591146 38.405599,27.8678385 37.9042969,28.5839844 L37.9042969,28.5839844 L24.1542969,49.1015625 C22.7936198,51.1067708 21.6298828,53.0761719 20.6630859,55.0097656 C19.6962891,56.9433594 18.9264323,58.9485677 18.3535156,61.0253906 C17.780599,63.1022135 17.3688151,65.2864583 17.1181641,67.578125 C16.867513,69.8697917 16.7421875,72.3763021 16.7421875,75.0976562 C16.7421875,77.5325521 16.9928385,79.4840495 17.4941406,80.9521484 C17.9954427,82.4202474 18.7652995,83.5481771 19.8037109,84.3359375 C20.8421224,85.1236979 22.1848958,85.6429036 23.8320312,85.8935547 C25.4791667,86.1442057 27.484375,86.2695312 29.8476562,86.2695312 Z" id="“" fill="#33B598" fill-rule="nonzero" transform="translate(57.752930, 55.439453) scale(-1, -1) translate(-57.752930, -55.439453) "></path>
        </g>
    </g>
</svg>