<?xml version="1.0" encoding="UTF-8"?>
<svg width="94px" height="84px" viewBox="0 0 94 84" version="1.1" xmlns="http://www.w3.org/2000/svg" xmlns:xlink="http://www.w3.org/1999/xlink">
    <title>Quote up</title>
    <g id="Page-1" stroke="none" stroke-width="1" fill="none" fill-rule="evenodd">
        <g id="Quote-up" transform="translate(0.000000, 0.609375)">
            <rect id="Rectangle" fill="#E7F8F4" x="0" y="25.390625" width="94" height="57"></rect>
            <path d="M59.0644531,61.6601562 C61.3561198,61.6601562 63.3792318,61.5348307 65.1337891,61.2841797 C66.8883464,61.0335286 68.320638,60.5143229 69.4306641,59.7265625 C70.5406901,58.9388021 71.3642578,57.8108724 71.9013672,56.3427734 C72.4384766,54.8746745 72.7070312,52.9231771 72.7070312,50.4882812 L72.7070312,50.4882812 L72.7070312,33.8378906 L85.2753906,4.51171875 C85.6334635,3.72395833 85.7945964,3.04361979 85.7587891,2.47070312 C85.7229818,1.89778646 85.4365234,1.41438802 84.8994141,1.02050781 C84.3623047,0.626627604 83.5208333,0.358072917 82.375,0.21484375 C81.2291667,0.0716145833 79.7252604,0 77.8632812,0 C76.1445312,0 74.7122396,0.0716145833 73.5664062,0.21484375 C72.4205729,0.358072917 71.4358724,0.590820312 70.6123047,0.913085938 C69.788737,1.23535156 69.1083984,1.64713542 68.5712891,2.1484375 C68.0341797,2.64973958 67.514974,3.25846354 67.0136719,3.97460938 L67.0136719,3.97460938 L53.3710938,24.4921875 C52.0104167,26.4973958 50.8466797,28.4667969 49.8798828,30.4003906 C48.9130859,32.3339844 48.1432292,34.3391927 47.5703125,36.4160156 C46.9973958,38.4928385 46.585612,40.6770833 46.3349609,42.96875 C46.0843099,45.2604167 45.9589844,47.7669271 45.9589844,50.4882812 C45.9589844,52.9231771 46.1917318,54.8746745 46.6572266,56.3427734 C47.1227214,57.8108724 47.8925781,58.9388021 48.9667969,59.7265625 C50.0410156,60.5143229 51.4016927,61.0335286 53.0488281,61.2841797 C54.6959635,61.5348307 56.7011719,61.6601562 59.0644531,61.6601562 Z M16.8476562,61.6601562 C19.2109375,61.6601562 21.2519531,61.5348307 22.9707031,61.2841797 C24.6894531,61.0335286 26.1038411,60.5143229 27.2138672,59.7265625 C28.3238932,58.9388021 29.1474609,57.8108724 29.6845703,56.3427734 C30.2216797,54.8746745 30.4902344,52.9231771 30.4902344,50.4882812 L30.4902344,50.4882812 L30.4902344,33.8378906 L43.1660156,4.51171875 C43.452474,3.72395833 43.5957031,3.04361979 43.5957031,2.47070312 C43.5957031,1.89778646 43.3092448,1.41438802 42.7363281,1.02050781 C42.1634115,0.626627604 41.3040365,0.358072917 40.1582031,0.21484375 C39.0123698,0.0716145833 37.5084635,0 35.6464844,0 C33.999349,0 32.6028646,0.0716145833 31.4570312,0.21484375 C30.3111979,0.358072917 29.3264974,0.590820312 28.5029297,0.913085938 C27.679362,1.23535156 26.9990234,1.64713542 26.4619141,2.1484375 C25.9248047,2.64973958 25.405599,3.25846354 24.9042969,3.97460938 L24.9042969,3.97460938 L11.1542969,24.4921875 C9.79361979,26.4973958 8.62988281,28.4667969 7.66308594,30.4003906 C6.69628906,32.3339844 5.92643229,34.3391927 5.35351562,36.4160156 C4.78059896,38.4928385 4.3688151,40.6770833 4.11816406,42.96875 C3.86751302,45.2604167 3.7421875,47.7669271 3.7421875,50.4882812 C3.7421875,52.9231771 3.99283854,54.8746745 4.49414062,56.3427734 C4.99544271,57.8108724 5.76529948,58.9388021 6.80371094,59.7265625 C7.8421224,60.5143229 9.18489583,61.0335286 10.8320312,61.2841797 C12.4791667,61.5348307 14.484375,61.6601562 16.8476562,61.6601562 Z" id="“" fill="#33B598" fill-rule="nonzero"></path>
        </g>
    </g>
</svg>