<svg xmlns="http://www.w3.org/2000/svg" width="123" height="119" viewBox="0 0 123 119">
    <g fill="none" fill-rule="evenodd">
        <g>
            <g>
                <g>
                    <path fill="#40B499" d="M58.47 30.547c-16.29 0-29.53 13.25-29.53 29.53 0 2.358.279 4.651.793 6.846.153.705.675 1.273 1.365 1.485.69.213 1.44.037 1.965-.46.524-.496.74-1.237.564-1.937-.446-1.905-.687-3.892-.687-5.934 0-14.12 11.4-25.53 25.53-25.53 14.118 0 25.53 11.412 25.53 25.53 0 2.042-.241 4.026-.695 5.925-.18.7.033 1.441.555 1.94.521.5 1.271.679 1.962.47.691-.21 1.216-.775 1.373-1.48.526-2.2.805-4.497.805-6.855 0-16.282-13.249-29.53-29.53-29.53zM58.47.227c-7.5 0-13.63 6.118-13.63 13.62 0 7.502 6.128 13.63 13.63 13.63 7.502 0 13.62-6.13 13.62-13.63 0-7.5-6.12-13.62-13.62-13.62zm0 4c5.34 0 9.62 4.28 9.62 9.62 0 5.34-4.282 9.63-9.62 9.63-5.338 0-9.63-4.292-9.63-9.63 0-5.338 4.29-9.62 9.63-9.62zM24.34 31.007C10.92 31.007 0 41.927 0 55.357c0 1.937.228 3.83.653 5.638.155.703.678 1.269 1.367 1.48.69.211 1.439.035 1.962-.461.523-.496.739-1.235.565-1.934C4.19 58.567 4 56.98 4 55.357c0-11.27 9.08-20.35 20.34-20.35 3.177 0 6.165.72 8.828 2.01.644.324 1.414.276 2.013-.126.6-.402.936-1.096.88-1.815-.056-.72-.495-1.354-1.149-1.659-3.197-1.549-6.79-2.41-10.572-2.41z" transform="translate(-172 -1880) translate(172 1880) translate(14 26)"/>
                    <path stroke="#40B499" stroke-width="4" d="M24.34 5.267c-5.802 0-10.55 4.75-10.55 10.56 0 5.802 4.745 10.56 10.55 10.56 5.812 0 10.56-4.758 10.56-10.56 0-5.81-4.75-10.56-10.56-10.56z" transform="translate(-172 -1880) translate(172 1880) translate(14 26)"/>
                </g>
                <path d="M0 0H123V119H0z" transform="translate(-172 -1880) translate(172 1880)"/>
            </g>
        </g>
    </g>
</svg>
