<svg xmlns="http://www.w3.org/2000/svg" width="67" height="67" viewBox="0 0 67 67">
    <g fill="none" fill-rule="evenodd">
        <path stroke="#35B498" stroke-width="1.54" d="M0 32.45C0 50.37 14.478 64.9 32.34 64.9c17.862 0 32.34-14.53 32.34-32.45C64.68 14.527 50.202 0 32.34 0 14.478 0 0 14.527 0 32.45z" transform="translate(1.36 1)"/>
        <g>
            <path fill="#35B498" d="M31.297 12.172c0 2.53-.313 5.06-.313 5.06s-.305 2.152-1.244 3.102c-1.19 1.244-2.524 1.25-3.136 1.322-4.38.316-10.956.326-10.956.326s-8.137-.074-10.64-.312c-.697-.131-2.262-.092-3.451-1.336C.618 19.384.313 17.23.313 17.23S0 14.701 0 12.172V9.8c0-2.53.313-5.057.313-5.057s.305-2.155 1.244-3.104C2.747.395 4.08.389 4.693.316 9.073 0 15.643 0 15.643 0h.011s6.57 0 10.95.316c.612.073 1.946.079 3.136 1.323.939.95 1.244 3.104 1.244 3.104s.313 2.528.313 5.057v2.372z" transform="translate(1.36 1) translate(16.17 21.217)"/>
            <path fill="#FFF" d="M12.521 15.702L20.865 11.529 12.519 7.327z" transform="translate(1.36 1) translate(16.17 21.217)"/>
        </g>
    </g>
</svg>
